<svg width="1457" height="1144" viewBox="0 0 1457 1144" fill="none" xmlns="http://www.w3.org/2000/svg">
<g opacity="0.06">
<path d="M981.124 1043.37L1011.93 1002.89L1045.72 1047.65L1016.71 1089.81L981.124 1043.37Z" fill="#6B6B6B"/>
<path d="M948.464 999.666L980.554 958.486L1011.21 1000.96L980.208 1042.1L948.464 999.666Z" fill="#8F8F8F"/>
<path d="M884.335 996.244L915.353 955.537L946.056 999.314L915.915 1040.21L884.335 996.244Z" fill="#6B6B6B"/>
<path d="M630.051 828.122L665.456 788.349L846.65 1039.14L813.083 1081.68L630.051 828.122Z" fill="#8F8F8F"/>
<path d="M671.478 705.19L705.174 666.348L913.515 952.772L881.65 994.162L671.478 705.19Z" fill="#8F8F8F"/>
<path d="M635.849 744.751L669.545 705.91L880.213 996.606L848.348 1038L635.849 744.751Z" fill="#6B6B6B"/>
<path d="M850.147 1039.68L882.237 998.496L914.485 1042.87L883.482 1084.01L850.147 1039.68Z" fill="#8F8F8F"/>
<path d="M1048.55 1047.77L1425.88 540.412L1425.88 631.555L1082.59 1093.39L1048.55 1047.77Z" fill="#6B6B6B"/>
<path d="M596.712 789.879L296.022 1125.87L368.651 1123.33L628.972 828.377L596.712 789.879Z" fill="url(#paint0_linear_391_2971)"/>
<path d="M602.019 705.002L222.286 1128.44L294.914 1125.9L634.279 743.5L602.019 705.002Z" fill="url(#paint1_linear_391_2971)"/>
<path d="M567.293 664.413L148.355 1131.02L220.983 1128.49L599.553 702.911L567.293 664.413Z" fill="url(#paint2_linear_391_2971)"/>
<path d="M502.577 656.658L73.1331 1133.65L147.048 1131.07L535.924 695.118L502.577 656.658Z" fill="url(#paint3_linear_391_2971)"/>
<path d="M1012.74 1001.12L1425.88 446.763L1425.88 537.906L1046.77 1046.74L1012.74 1001.12Z" fill="#8F8F8F"/>
<path d="M982.472 957.329L1425.88 368.671L1425.88 444.511L1011.79 998.978L982.472 957.329Z" fill="#6B6B6B"/>
<path d="M948.387 910.187L1425.69 271.021L1425.69 366.658L981.1 955.418L948.387 910.187Z" fill="#8F8F8F"/>
<path d="M738.207 708.301L773.612 668.529L948.123 908.89L914.557 951.428L738.207 708.301Z" fill="#6B6B6B"/>
<line x1="401.656" y1="0.706193" x2="64.6423" y2="337.72" stroke="url(#paint4_linear_391_2971)" stroke-width="0.165428"/>
<line x1="434.496" y1="33.5443" x2="97.4821" y2="370.558" stroke="url(#paint5_linear_391_2971)" stroke-width="0.165428"/>
<line x1="467.332" y1="66.3827" x2="130.318" y2="403.397" stroke="url(#paint6_linear_391_2971)" stroke-width="0.165428"/>
<line x1="500.172" y1="99.2208" x2="163.158" y2="436.235" stroke="url(#paint7_linear_391_2971)" stroke-width="0.165428"/>
<line x1="533.008" y1="132.059" x2="195.994" y2="469.073" stroke="url(#paint8_linear_391_2971)" stroke-width="0.165428"/>
<line x1="565.848" y1="164.897" x2="228.834" y2="501.911" stroke="url(#paint9_linear_391_2971)" stroke-width="0.165428"/>
<line x1="598.683" y1="197.735" x2="261.67" y2="534.749" stroke="url(#paint10_linear_391_2971)" stroke-width="0.165428"/>
<line x1="631.523" y1="230.574" x2="294.509" y2="567.587" stroke="url(#paint11_linear_391_2971)" stroke-width="0.165428"/>
<line x1="664.363" y1="263.412" x2="327.349" y2="600.426" stroke="url(#paint12_linear_391_2971)" stroke-width="0.165428"/>
<line x1="697.199" y1="296.25" x2="360.185" y2="633.264" stroke="url(#paint13_linear_391_2971)" stroke-width="0.165428"/>
<line x1="730.039" y1="329.088" x2="393.025" y2="666.102" stroke="url(#paint14_linear_391_2971)" stroke-width="0.165428"/>
<line x1="762.875" y1="361.926" x2="425.861" y2="698.94" stroke="url(#paint15_linear_391_2971)" stroke-width="0.165428"/>
</g>
<defs>
<linearGradient id="paint0_linear_391_2971" x1="481.341" y1="1106.98" x2="438.654" y2="812.816" gradientUnits="userSpaceOnUse">
<stop/>
<stop offset="1" stop-color="#6B6B6B"/>
</linearGradient>
<linearGradient id="paint1_linear_391_2971" x1="452.525" y1="1103.03" x2="399.04" y2="734.457" gradientUnits="userSpaceOnUse">
<stop stop-color="#2B2B2B"/>
<stop offset="1" stop-color="#8F8F8F"/>
</linearGradient>
<linearGradient id="paint2_linear_391_2971" x1="400.861" y1="1102.38" x2="342.048" y2="697.099" gradientUnits="userSpaceOnUse">
<stop/>
<stop offset="1" stop-color="#6B6B6B"/>
</linearGradient>
<linearGradient id="paint3_linear_391_2971" x1="332.076" y1="1104.22" x2="271.985" y2="690.12" gradientUnits="userSpaceOnUse">
<stop stop-color="#2B2B2B"/>
<stop offset="1" stop-color="#8F8F8F"/>
</linearGradient>
<linearGradient id="paint4_linear_391_2971" x1="401.24" y1="0.289992" x2="473.468" y2="158.243" gradientUnits="userSpaceOnUse">
<stop stop-color="#343894" stop-opacity="0"/>
<stop offset="0.546875" stop-color="#E91D24"/>
<stop offset="1" stop-color="#343894" stop-opacity="0"/>
</linearGradient>
<linearGradient id="paint5_linear_391_2971" x1="434.08" y1="33.1281" x2="506.308" y2="191.081" gradientUnits="userSpaceOnUse">
<stop stop-color="#343894" stop-opacity="0"/>
<stop offset="0.546875" stop-color="#E91D24"/>
<stop offset="1" stop-color="#343894" stop-opacity="0"/>
</linearGradient>
<linearGradient id="paint6_linear_391_2971" x1="466.916" y1="65.9665" x2="539.144" y2="223.919" gradientUnits="userSpaceOnUse">
<stop stop-color="#343894" stop-opacity="0"/>
<stop offset="0.546875" stop-color="#E91D24"/>
<stop offset="1" stop-color="#343894" stop-opacity="0"/>
</linearGradient>
<linearGradient id="paint7_linear_391_2971" x1="499.756" y1="98.8046" x2="571.984" y2="256.757" gradientUnits="userSpaceOnUse">
<stop stop-color="#343894" stop-opacity="0"/>
<stop offset="0.546875" stop-color="#E91D24"/>
<stop offset="1" stop-color="#343894" stop-opacity="0"/>
</linearGradient>
<linearGradient id="paint8_linear_391_2971" x1="532.592" y1="131.643" x2="604.82" y2="289.595" gradientUnits="userSpaceOnUse">
<stop stop-color="#343894" stop-opacity="0"/>
<stop offset="0.546875" stop-color="#E91D24"/>
<stop offset="1" stop-color="#343894" stop-opacity="0"/>
</linearGradient>
<linearGradient id="paint9_linear_391_2971" x1="565.431" y1="164.481" x2="637.659" y2="322.434" gradientUnits="userSpaceOnUse">
<stop stop-color="#343894" stop-opacity="0"/>
<stop offset="0.546875" stop-color="#E91D24"/>
<stop offset="1" stop-color="#343894" stop-opacity="0"/>
</linearGradient>
<linearGradient id="paint10_linear_391_2971" x1="598.267" y1="197.319" x2="670.495" y2="355.272" gradientUnits="userSpaceOnUse">
<stop stop-color="#343894" stop-opacity="0"/>
<stop offset="0.546875" stop-color="#E91D24"/>
<stop offset="1" stop-color="#343894" stop-opacity="0"/>
</linearGradient>
<linearGradient id="paint11_linear_391_2971" x1="631.107" y1="230.157" x2="703.335" y2="388.11" gradientUnits="userSpaceOnUse">
<stop stop-color="#343894" stop-opacity="0"/>
<stop offset="0.546875" stop-color="#E91D24"/>
<stop offset="1" stop-color="#343894" stop-opacity="0"/>
</linearGradient>
<linearGradient id="paint12_linear_391_2971" x1="663.947" y1="262.996" x2="736.175" y2="420.948" gradientUnits="userSpaceOnUse">
<stop stop-color="#343894" stop-opacity="0"/>
<stop offset="0.546875" stop-color="#E91D24"/>
<stop offset="1" stop-color="#343894" stop-opacity="0"/>
</linearGradient>
<linearGradient id="paint13_linear_391_2971" x1="696.783" y1="295.834" x2="769.011" y2="453.787" gradientUnits="userSpaceOnUse">
<stop stop-color="#343894" stop-opacity="0"/>
<stop offset="0.546875" stop-color="#E91D24"/>
<stop offset="1" stop-color="#343894" stop-opacity="0"/>
</linearGradient>
<linearGradient id="paint14_linear_391_2971" x1="729.623" y1="328.672" x2="801.851" y2="486.625" gradientUnits="userSpaceOnUse">
<stop stop-color="#343894" stop-opacity="0"/>
<stop offset="0.546875" stop-color="#E91D24"/>
<stop offset="1" stop-color="#343894" stop-opacity="0"/>
</linearGradient>
<linearGradient id="paint15_linear_391_2971" x1="762.459" y1="361.51" x2="834.687" y2="519.463" gradientUnits="userSpaceOnUse">
<stop stop-color="#343894" stop-opacity="0"/>
<stop offset="0.546875" stop-color="#E91D24"/>
<stop offset="1" stop-color="#343894" stop-opacity="0"/>
</linearGradient>
</defs>
</svg>
